<svg xmlns="http://www.w3.org/2000/svg" version="1.1" xmlns:xlink="http://www.w3.org/1999/xlink" xmlns:svgjs="http://svgjs.com/svgjs" width="1440" height="560" preserveAspectRatio="none" viewBox="0 0 1440 560"><g mask="url(&quot;#SvgjsMask1283&quot;)" fill="none"><rect width="1440" height="560" x="0" y="0" fill="rgba(33, 37, 41, 1)"></rect><path d="M-108.4 381.45L-108.4 381.45" stroke="rgba(9, 55, 101, 1)" stroke-width="1.5"></path><path d="M-108.4 381.45L-67.08 528.57" stroke="rgba(9, 55, 101, 1)" stroke-width="1.5"></path><path d="M-108.4 381.45L101.45 340.69" stroke="rgba(9, 55, 101, 1)" stroke-width="1.5"></path><path d="M-108.4 381.45L73.11 533.1" stroke="rgba(9, 55, 101, 1)" stroke-width="1.5"></path><path d="M-108.4 381.45L-49.05 682.89" stroke="rgba(9, 55, 101, 1)" stroke-width="1.5"></path><path d="M-67.08 528.57L-67.08 528.57" stroke="rgba(9, 55, 101, 1)" stroke-width="1.5"></path><path d="M-67.08 528.57L73.11 533.1" stroke="rgba(9, 55, 101, 1)" stroke-width="1.5"></path><path d="M-49.05 682.89L-49.05 682.89" stroke="rgba(9, 55, 101, 1)" stroke-width="1.5"></path><path d="M-49.05 682.89L87.26 662.37" stroke="rgba(9, 55, 101, 1)" stroke-width="1.5"></path><path d="M-49.05 682.89L-67.08 528.57" stroke="rgba(9, 55, 101, 1)" stroke-width="1.5"></path><path d="M-49.05 682.89L73.11 533.1" stroke="rgba(9, 55, 101, 1)" stroke-width="1.5"></path><path d="M101.45 340.69L101.45 340.69" stroke="rgba(9, 55, 101, 1)" stroke-width="1.5"></path><path d="M101.45 340.69L73.11 533.1" stroke="rgba(9, 55, 101, 1)" stroke-width="1.5"></path><path d="M101.45 340.69L212.63 510.88" stroke="rgba(9, 55, 101, 1)" stroke-width="1.5"></path><path d="M101.45 340.69L-67.08 528.57" stroke="rgba(9, 55, 101, 1)" stroke-width="1.5"></path><path d="M73.11 533.1L73.11 533.1" stroke="rgba(9, 55, 101, 1)" stroke-width="1.5"></path><path d="M73.11 533.1L87.26 662.37" stroke="rgba(9, 55, 101, 1)" stroke-width="1.5"></path><path d="M73.11 533.1L212.63 510.88" stroke="rgba(9, 55, 101, 1)" stroke-width="1.5"></path><path d="M73.11 533.1L203.65 665" stroke="rgba(9, 55, 101, 1)" stroke-width="1.5"></path><path d="M87.26 662.37L87.26 662.37" stroke="rgba(9, 55, 101, 1)" stroke-width="1.5"></path><path d="M87.26 662.37L203.65 665" stroke="rgba(9, 55, 101, 1)" stroke-width="1.5"></path><path d="M87.26 662.37L212.63 510.88" stroke="rgba(9, 55, 101, 1)" stroke-width="1.5"></path><path d="M212.63 510.88L212.63 510.88" stroke="rgba(9, 55, 101, 1)" stroke-width="1.5"></path><path d="M212.63 510.88L341.21 497.99" stroke="rgba(9, 55, 101, 1)" stroke-width="1.5"></path><path d="M212.63 510.88L203.65 665" stroke="rgba(9, 55, 101, 1)" stroke-width="1.5"></path><path d="M203.65 665L203.65 665" stroke="rgba(9, 55, 101, 1)" stroke-width="1.5"></path><path d="M393.13 411.98L393.13 411.98" stroke="rgba(9, 55, 101, 1)" stroke-width="1.5"></path><path d="M393.13 411.98L488.16 403.98" stroke="rgba(9, 55, 101, 1)" stroke-width="1.5"></path><path d="M393.13 411.98L341.21 497.99" stroke="rgba(9, 55, 101, 1)" stroke-width="1.5"></path><path d="M393.13 411.98L212.63 510.88" stroke="rgba(9, 55, 101, 1)" stroke-width="1.5"></path><path d="M341.21 497.99L341.21 497.99" stroke="rgba(9, 55, 101, 1)" stroke-width="1.5"></path><path d="M402.98 699.69L402.98 699.69" stroke="rgba(9, 55, 101, 1)" stroke-width="1.5"></path><path d="M402.98 699.69L528.07 678.65" stroke="rgba(9, 55, 101, 1)" stroke-width="1.5"></path><path d="M402.98 699.69L203.65 665" stroke="rgba(9, 55, 101, 1)" stroke-width="1.5"></path><path d="M402.98 699.69L341.21 497.99" stroke="rgba(9, 55, 101, 1)" stroke-width="1.5"></path><path d="M402.98 699.69L560.69 545.68" stroke="rgba(9, 55, 101, 1)" stroke-width="1.5"></path><path d="M402.98 699.69L670.14 691.46" stroke="rgba(9, 55, 101, 1)" stroke-width="1.5"></path><path d="M488.16 403.98L488.16 403.98" stroke="rgba(9, 55, 101, 1)" stroke-width="1.5"></path><path d="M488.16 403.98L560.69 545.68" stroke="rgba(9, 55, 101, 1)" stroke-width="1.5"></path><path d="M488.16 403.98L341.21 497.99" stroke="rgba(9, 55, 101, 1)" stroke-width="1.5"></path><path d="M560.69 545.68L560.69 545.68" stroke="rgba(9, 55, 101, 1)" stroke-width="1.5"></path><path d="M560.69 545.68L644.61 550.7" stroke="rgba(9, 55, 101, 1)" stroke-width="1.5"></path><path d="M528.07 678.65L528.07 678.65" stroke="rgba(9, 55, 101, 1)" stroke-width="1.5"></path><path d="M528.07 678.65L560.69 545.68" stroke="rgba(9, 55, 101, 1)" stroke-width="1.5"></path><path d="M528.07 678.65L670.14 691.46" stroke="rgba(9, 55, 101, 1)" stroke-width="1.5"></path><path d="M528.07 678.65L644.61 550.7" stroke="rgba(9, 55, 101, 1)" stroke-width="1.5"></path><path d="M528.07 678.65L341.21 497.99" stroke="rgba(9, 55, 101, 1)" stroke-width="1.5"></path><path d="M687.1 261.52L687.1 261.52" stroke="rgba(9, 55, 101, 1)" stroke-width="1.5"></path><path d="M687.1 261.52L829.92 249.99" stroke="rgba(9, 55, 101, 1)" stroke-width="1.5"></path><path d="M687.1 261.52L843.76 358.66" stroke="rgba(9, 55, 101, 1)" stroke-width="1.5"></path><path d="M687.1 261.52L488.16 403.98" stroke="rgba(9, 55, 101, 1)" stroke-width="1.5"></path><path d="M644.61 550.7L644.61 550.7" stroke="rgba(9, 55, 101, 1)" stroke-width="1.5"></path><path d="M644.61 550.7L670.14 691.46" stroke="rgba(9, 55, 101, 1)" stroke-width="1.5"></path><path d="M670.14 691.46L670.14 691.46" stroke="rgba(9, 55, 101, 1)" stroke-width="1.5"></path><path d="M829.92 249.99L829.92 249.99" stroke="rgba(9, 55, 101, 1)" stroke-width="1.5"></path><path d="M829.92 249.99L843.76 358.66" stroke="rgba(9, 55, 101, 1)" stroke-width="1.5"></path><path d="M829.92 249.99L981.56 241.93" stroke="rgba(9, 55, 101, 1)" stroke-width="1.5"></path><path d="M829.92 249.99L1003.67 392.38" stroke="rgba(9, 55, 101, 1)" stroke-width="1.5"></path><path d="M843.76 358.66L843.76 358.66" stroke="rgba(9, 55, 101, 1)" stroke-width="1.5"></path><path d="M843.76 358.66L848.98 521.69" stroke="rgba(9, 55, 101, 1)" stroke-width="1.5"></path><path d="M843.76 358.66L1003.67 392.38" stroke="rgba(9, 55, 101, 1)" stroke-width="1.5"></path><path d="M843.76 358.66L981.56 241.93" stroke="rgba(9, 55, 101, 1)" stroke-width="1.5"></path><path d="M843.76 358.66L1001.63 488.17" stroke="rgba(9, 55, 101, 1)" stroke-width="1.5"></path><path d="M848.98 521.69L848.98 521.69" stroke="rgba(9, 55, 101, 1)" stroke-width="1.5"></path><path d="M848.98 521.69L1001.63 488.17" stroke="rgba(9, 55, 101, 1)" stroke-width="1.5"></path><path d="M848.98 521.69L819.25 708.8" stroke="rgba(9, 55, 101, 1)" stroke-width="1.5"></path><path d="M848.98 521.69L1003.67 392.38" stroke="rgba(9, 55, 101, 1)" stroke-width="1.5"></path><path d="M819.25 708.8L819.25 708.8" stroke="rgba(9, 55, 101, 1)" stroke-width="1.5"></path><path d="M819.25 708.8L670.14 691.46" stroke="rgba(9, 55, 101, 1)" stroke-width="1.5"></path><path d="M819.25 708.8L644.61 550.7" stroke="rgba(9, 55, 101, 1)" stroke-width="1.5"></path><path d="M819.25 708.8L1001.63 488.17" stroke="rgba(9, 55, 101, 1)" stroke-width="1.5"></path><path d="M819.25 708.8L1102.05 646.94" stroke="rgba(9, 55, 101, 1)" stroke-width="1.5"></path><path d="M981.56 241.93L981.56 241.93" stroke="rgba(9, 55, 101, 1)" stroke-width="1.5"></path><path d="M981.56 241.93L1130.48 211.25" stroke="rgba(9, 55, 101, 1)" stroke-width="1.5"></path><path d="M981.56 241.93L1003.67 392.38" stroke="rgba(9, 55, 101, 1)" stroke-width="1.5"></path><path d="M981.56 241.93L1100.73 395.3" stroke="rgba(9, 55, 101, 1)" stroke-width="1.5"></path><path d="M981.56 241.93L1142.18 105.76" stroke="rgba(9, 55, 101, 1)" stroke-width="1.5"></path><path d="M1003.67 392.38L1003.67 392.38" stroke="rgba(9, 55, 101, 1)" stroke-width="1.5"></path><path d="M1003.67 392.38L1001.63 488.17" stroke="rgba(9, 55, 101, 1)" stroke-width="1.5"></path><path d="M1003.67 392.38L1100.73 395.3" stroke="rgba(9, 55, 101, 1)" stroke-width="1.5"></path><path d="M1001.63 488.17L1001.63 488.17" stroke="rgba(9, 55, 101, 1)" stroke-width="1.5"></path><path d="M1001.63 488.17L1100.73 395.3" stroke="rgba(9, 55, 101, 1)" stroke-width="1.5"></path><path d="M1001.63 488.17L1161.88 553.13" stroke="rgba(9, 55, 101, 1)" stroke-width="1.5"></path><path d="M1001.63 488.17L1102.05 646.94" stroke="rgba(9, 55, 101, 1)" stroke-width="1.5"></path><path d="M1136.18 -78.12L1136.18 -78.12" stroke="rgba(9, 55, 101, 1)" stroke-width="1.5"></path><path d="M1136.18 -78.12L1272.12 -69.61" stroke="rgba(9, 55, 101, 1)" stroke-width="1.5"></path><path d="M1136.18 -78.12L1142.18 105.76" stroke="rgba(9, 55, 101, 1)" stroke-width="1.5"></path><path d="M1136.18 -78.12L1308.15 79.67" stroke="rgba(9, 55, 101, 1)" stroke-width="1.5"></path><path d="M1136.18 -78.12L1130.48 211.25" stroke="rgba(9, 55, 101, 1)" stroke-width="1.5"></path><path d="M1142.18 105.76L1142.18 105.76" stroke="rgba(9, 55, 101, 1)" stroke-width="1.5"></path><path d="M1142.18 105.76L1130.48 211.25" stroke="rgba(9, 55, 101, 1)" stroke-width="1.5"></path><path d="M1142.18 105.76L1308.15 79.67" stroke="rgba(9, 55, 101, 1)" stroke-width="1.5"></path><path d="M1142.18 105.76L1283.09 208.63" stroke="rgba(9, 55, 101, 1)" stroke-width="1.5"></path><path d="M1130.48 211.25L1130.48 211.25" stroke="rgba(9, 55, 101, 1)" stroke-width="1.5"></path><path d="M1130.48 211.25L1283.09 208.63" stroke="rgba(9, 55, 101, 1)" stroke-width="1.5"></path><path d="M1130.48 211.25L1100.73 395.3" stroke="rgba(9, 55, 101, 1)" stroke-width="1.5"></path><path d="M1100.73 395.3L1100.73 395.3" stroke="rgba(9, 55, 101, 1)" stroke-width="1.5"></path><path d="M1161.88 553.13L1161.88 553.13" stroke="rgba(9, 55, 101, 1)" stroke-width="1.5"></path><path d="M1161.88 553.13L1248.4 512.57" stroke="rgba(9, 55, 101, 1)" stroke-width="1.5"></path><path d="M1161.88 553.13L1102.05 646.94" stroke="rgba(9, 55, 101, 1)" stroke-width="1.5"></path><path d="M1161.88 553.13L1100.73 395.3" stroke="rgba(9, 55, 101, 1)" stroke-width="1.5"></path><path d="M1161.88 553.13L1308.33 648.23" stroke="rgba(9, 55, 101, 1)" stroke-width="1.5"></path><path d="M1102.05 646.94L1102.05 646.94" stroke="rgba(9, 55, 101, 1)" stroke-width="1.5"></path><path d="M1102.05 646.94L1248.4 512.57" stroke="rgba(9, 55, 101, 1)" stroke-width="1.5"></path><path d="M1272.12 -69.61L1272.12 -69.61" stroke="rgba(9, 55, 101, 1)" stroke-width="1.5"></path><path d="M1272.12 -69.61L1308.15 79.67" stroke="rgba(9, 55, 101, 1)" stroke-width="1.5"></path><path d="M1272.12 -69.61L1398.13 55.64" stroke="rgba(9, 55, 101, 1)" stroke-width="1.5"></path><path d="M1272.12 -69.61L1454.6 -87.96" stroke="rgba(9, 55, 101, 1)" stroke-width="1.5"></path><path d="M1272.12 -69.61L1142.18 105.76" stroke="rgba(9, 55, 101, 1)" stroke-width="1.5"></path><path d="M1272.12 -69.61L1540.74 -78.29" stroke="rgba(9, 55, 101, 1)" stroke-width="1.5"></path><path d="M1308.15 79.67L1308.15 79.67" stroke="rgba(9, 55, 101, 1)" stroke-width="1.5"></path><path d="M1308.15 79.67L1398.13 55.64" stroke="rgba(9, 55, 101, 1)" stroke-width="1.5"></path><path d="M1308.15 79.67L1283.09 208.63" stroke="rgba(9, 55, 101, 1)" stroke-width="1.5"></path><path d="M1308.15 79.67L1455.44 234.4" stroke="rgba(9, 55, 101, 1)" stroke-width="1.5"></path><path d="M1283.09 208.63L1283.09 208.63" stroke="rgba(9, 55, 101, 1)" stroke-width="1.5"></path><path d="M1283.09 208.63L1455.44 234.4" stroke="rgba(9, 55, 101, 1)" stroke-width="1.5"></path><path d="M1283.09 208.63L1239.79 380.81" stroke="rgba(9, 55, 101, 1)" stroke-width="1.5"></path><path d="M1283.09 208.63L1398.13 55.64" stroke="rgba(9, 55, 101, 1)" stroke-width="1.5"></path><path d="M1239.79 380.81L1239.79 380.81" stroke="rgba(9, 55, 101, 1)" stroke-width="1.5"></path><path d="M1239.79 380.81L1248.4 512.57" stroke="rgba(9, 55, 101, 1)" stroke-width="1.5"></path><path d="M1239.79 380.81L1100.73 395.3" stroke="rgba(9, 55, 101, 1)" stroke-width="1.5"></path><path d="M1239.79 380.81L1161.88 553.13" stroke="rgba(9, 55, 101, 1)" stroke-width="1.5"></path><path d="M1239.79 380.81L1130.48 211.25" stroke="rgba(9, 55, 101, 1)" stroke-width="1.5"></path><path d="M1239.79 380.81L1451.92 339.79" stroke="rgba(9, 55, 101, 1)" stroke-width="1.5"></path><path d="M1248.4 512.57L1248.4 512.57" stroke="rgba(9, 55, 101, 1)" stroke-width="1.5"></path><path d="M1248.4 512.57L1308.33 648.23" stroke="rgba(9, 55, 101, 1)" stroke-width="1.5"></path><path d="M1248.4 512.57L1396.83 534.58" stroke="rgba(9, 55, 101, 1)" stroke-width="1.5"></path><path d="M1248.4 512.57L1100.73 395.3" stroke="rgba(9, 55, 101, 1)" stroke-width="1.5"></path><path d="M1308.33 648.23L1308.33 648.23" stroke="rgba(9, 55, 101, 1)" stroke-width="1.5"></path><path d="M1308.33 648.23L1396.83 534.58" stroke="rgba(9, 55, 101, 1)" stroke-width="1.5"></path><path d="M1308.33 648.23L1461.6 694.87" stroke="rgba(9, 55, 101, 1)" stroke-width="1.5"></path><path d="M1454.6 -87.96L1454.6 -87.96" stroke="rgba(9, 55, 101, 1)" stroke-width="1.5"></path><path d="M1454.6 -87.96L1540.74 -78.29" stroke="rgba(9, 55, 101, 1)" stroke-width="1.5"></path><path d="M1454.6 -87.96L1398.13 55.64" stroke="rgba(9, 55, 101, 1)" stroke-width="1.5"></path><path d="M1454.6 -87.96L1585.37 66.52" stroke="rgba(9, 55, 101, 1)" stroke-width="1.5"></path><path d="M1398.13 55.64L1398.13 55.64" stroke="rgba(9, 55, 101, 1)" stroke-width="1.5"></path><path d="M1455.44 234.4L1455.44 234.4" stroke="rgba(9, 55, 101, 1)" stroke-width="1.5"></path><path d="M1455.44 234.4L1451.92 339.79" stroke="rgba(9, 55, 101, 1)" stroke-width="1.5"></path><path d="M1455.44 234.4L1601.02 260.31" stroke="rgba(9, 55, 101, 1)" stroke-width="1.5"></path><path d="M1455.44 234.4L1398.13 55.64" stroke="rgba(9, 55, 101, 1)" stroke-width="1.5"></path><path d="M1451.92 339.79L1451.92 339.79" stroke="rgba(9, 55, 101, 1)" stroke-width="1.5"></path><path d="M1451.92 339.79L1563.03 394.01" stroke="rgba(9, 55, 101, 1)" stroke-width="1.5"></path><path d="M1451.92 339.79L1601.02 260.31" stroke="rgba(9, 55, 101, 1)" stroke-width="1.5"></path><path d="M1451.92 339.79L1396.83 534.58" stroke="rgba(9, 55, 101, 1)" stroke-width="1.5"></path><path d="M1396.83 534.58L1396.83 534.58" stroke="rgba(9, 55, 101, 1)" stroke-width="1.5"></path><path d="M1396.83 534.58L1461.6 694.87" stroke="rgba(9, 55, 101, 1)" stroke-width="1.5"></path><path d="M1396.83 534.58L1563.03 394.01" stroke="rgba(9, 55, 101, 1)" stroke-width="1.5"></path><path d="M1461.6 694.87L1461.6 694.87" stroke="rgba(9, 55, 101, 1)" stroke-width="1.5"></path><path d="M1461.6 694.87L1601.43 664.81" stroke="rgba(9, 55, 101, 1)" stroke-width="1.5"></path><path d="M1461.6 694.87L1248.4 512.57" stroke="rgba(9, 55, 101, 1)" stroke-width="1.5"></path><path d="M1540.74 -78.29L1540.74 -78.29" stroke="rgba(9, 55, 101, 1)" stroke-width="1.5"></path><path d="M1585.37 66.52L1585.37 66.52" stroke="rgba(9, 55, 101, 1)" stroke-width="1.5"></path><path d="M1585.37 66.52L1540.74 -78.29" stroke="rgba(9, 55, 101, 1)" stroke-width="1.5"></path><path d="M1585.37 66.52L1398.13 55.64" stroke="rgba(9, 55, 101, 1)" stroke-width="1.5"></path><path d="M1585.37 66.52L1601.02 260.31" stroke="rgba(9, 55, 101, 1)" stroke-width="1.5"></path><path d="M1585.37 66.52L1455.44 234.4" stroke="rgba(9, 55, 101, 1)" stroke-width="1.5"></path><path d="M1585.37 66.52L1308.15 79.67" stroke="rgba(9, 55, 101, 1)" stroke-width="1.5"></path><path d="M1601.02 260.31L1601.02 260.31" stroke="rgba(9, 55, 101, 1)" stroke-width="1.5"></path><path d="M1601.02 260.31L1563.03 394.01" stroke="rgba(9, 55, 101, 1)" stroke-width="1.5"></path><path d="M1601.02 260.31L1398.13 55.64" stroke="rgba(9, 55, 101, 1)" stroke-width="1.5"></path><path d="M1601.02 260.31L1283.09 208.63" stroke="rgba(9, 55, 101, 1)" stroke-width="1.5"></path><path d="M1563.03 394.01L1563.03 394.01" stroke="rgba(9, 55, 101, 1)" stroke-width="1.5"></path><path d="M1563.03 394.01L1455.44 234.4" stroke="rgba(9, 55, 101, 1)" stroke-width="1.5"></path><path d="M1601.43 664.81L1601.43 664.81" stroke="rgba(9, 55, 101, 1)" stroke-width="1.5"></path><path d="M1601.43 664.81L1396.83 534.58" stroke="rgba(9, 55, 101, 1)" stroke-width="1.5"></path><path d="M1601.43 664.81L1563.03 394.01" stroke="rgba(9, 55, 101, 1)" stroke-width="1.5"></path><path d="M1601.43 664.81L1308.33 648.23" stroke="rgba(9, 55, 101, 1)" stroke-width="1.5"></path><path d="M1601.43 664.81L1451.92 339.79" stroke="rgba(9, 55, 101, 1)" stroke-width="1.5"></path><circle r="5" cx="-108.4" cy="381.45" fill="rgba(9, 55, 101, 1)"></circle><circle r="5" cx="-67.08" cy="528.57" fill="rgba(9, 55, 101, 1)"></circle><circle r="5" cx="-49.05" cy="682.89" fill="rgba(9, 55, 101, 1)"></circle><circle r="5" cx="101.45" cy="340.69" fill="rgba(9, 55, 101, 1)"></circle><circle r="5" cx="73.11" cy="533.1" fill="rgba(9, 55, 101, 1)"></circle><circle r="5" cx="87.26" cy="662.37" fill="rgba(9, 55, 101, 1)"></circle><circle r="5" cx="212.63" cy="510.88" fill="rgba(9, 55, 101, 1)"></circle><circle r="5" cx="203.65" cy="665" fill="rgba(9, 55, 101, 1)"></circle><circle r="5" cx="393.13" cy="411.98" fill="rgba(9, 55, 101, 1)"></circle><circle r="5" cx="341.21" cy="497.99" fill="rgba(9, 55, 101, 1)"></circle><circle r="5" cx="402.98" cy="699.69" fill="rgba(9, 55, 101, 1)"></circle><circle r="5" cx="488.16" cy="403.98" fill="rgba(9, 55, 101, 1)"></circle><circle r="5" cx="560.69" cy="545.68" fill="rgba(9, 55, 101, 1)"></circle><circle r="5" cx="528.07" cy="678.65" fill="rgba(9, 55, 101, 1)"></circle><circle r="5" cx="687.1" cy="261.52" fill="rgba(9, 55, 101, 1)"></circle><circle r="5" cx="644.61" cy="550.7" fill="rgba(9, 55, 101, 1)"></circle><circle r="5" cx="670.14" cy="691.46" fill="rgba(9, 55, 101, 1)"></circle><circle r="5" cx="829.92" cy="249.99" fill="rgba(9, 55, 101, 1)"></circle><circle r="5" cx="843.76" cy="358.66" fill="rgba(9, 55, 101, 1)"></circle><circle r="5" cx="848.98" cy="521.69" fill="rgba(9, 55, 101, 1)"></circle><circle r="5" cx="819.25" cy="708.8" fill="rgba(9, 55, 101, 1)"></circle><circle r="5" cx="981.56" cy="241.93" fill="rgba(9, 55, 101, 1)"></circle><circle r="5" cx="1003.67" cy="392.38" fill="rgba(9, 55, 101, 1)"></circle><circle r="5" cx="1001.63" cy="488.17" fill="rgba(9, 55, 101, 1)"></circle><circle r="5" cx="1136.18" cy="-78.12" fill="rgba(9, 55, 101, 1)"></circle><circle r="5" cx="1142.18" cy="105.76" fill="rgba(9, 55, 101, 1)"></circle><circle r="5" cx="1130.48" cy="211.25" fill="rgba(9, 55, 101, 1)"></circle><circle r="5" cx="1100.73" cy="395.3" fill="rgba(9, 55, 101, 1)"></circle><circle r="5" cx="1161.88" cy="553.13" fill="rgba(9, 55, 101, 1)"></circle><circle r="5" cx="1102.05" cy="646.94" fill="rgba(9, 55, 101, 1)"></circle><circle r="5" cx="1272.12" cy="-69.61" fill="rgba(9, 55, 101, 1)"></circle><circle r="5" cx="1308.15" cy="79.67" fill="rgba(9, 55, 101, 1)"></circle><circle r="5" cx="1283.09" cy="208.63" fill="rgba(9, 55, 101, 1)"></circle><circle r="5" cx="1239.79" cy="380.81" fill="rgba(9, 55, 101, 1)"></circle><circle r="5" cx="1248.4" cy="512.57" fill="rgba(9, 55, 101, 1)"></circle><circle r="5" cx="1308.33" cy="648.23" fill="rgba(9, 55, 101, 1)"></circle><circle r="5" cx="1454.6" cy="-87.96" fill="rgba(9, 55, 101, 1)"></circle><circle r="5" cx="1398.13" cy="55.64" fill="rgba(9, 55, 101, 1)"></circle><circle r="5" cx="1455.44" cy="234.4" fill="rgba(9, 55, 101, 1)"></circle><circle r="5" cx="1451.92" cy="339.79" fill="rgba(9, 55, 101, 1)"></circle><circle r="5" cx="1396.83" cy="534.58" fill="rgba(9, 55, 101, 1)"></circle><circle r="5" cx="1461.6" cy="694.87" fill="rgba(9, 55, 101, 1)"></circle><circle r="5" cx="1540.74" cy="-78.29" fill="rgba(9, 55, 101, 1)"></circle><circle r="5" cx="1585.37" cy="66.52" fill="rgba(9, 55, 101, 1)"></circle><circle r="5" cx="1601.02" cy="260.31" fill="rgba(9, 55, 101, 1)"></circle><circle r="5" cx="1563.03" cy="394.01" fill="rgba(9, 55, 101, 1)"></circle><circle r="5" cx="1601.43" cy="664.81" fill="rgba(9, 55, 101, 1)"></circle><path d="M105.09 499.55L105.09 499.55" stroke="hsl(228.5, 77.2%, 51.5%)" stroke-width="1.5"></path><path d="M105.09 499.55L227.99 560" stroke="hsl(228.5, 77.2%, 51.5%)" stroke-width="1.5"></path><path d="M105.09 499.55L91.46 665.78" stroke="hsl(228.5, 77.2%, 51.5%)" stroke-width="1.5"></path><path d="M105.09 499.55L-87.45 492.49" stroke="hsl(228.5, 77.2%, 51.5%)" stroke-width="1.5"></path><path d="M655.68 503.79L655.68 503.79" stroke="hsl(228.5, 77.2%, 51.5%)" stroke-width="1.5"></path><path d="M655.68 503.79L648.39 393.48" stroke="hsl(228.5, 77.2%, 51.5%)" stroke-width="1.5"></path><path d="M655.68 503.79L815.51 494.88" stroke="hsl(228.5, 77.2%, 51.5%)" stroke-width="1.5"></path><path d="M655.68 503.79L644.85 700.46" stroke="hsl(228.5, 77.2%, 51.5%)" stroke-width="1.5"></path><path d="M815.51 494.88L815.51 494.88" stroke="hsl(228.5, 77.2%, 51.5%)" stroke-width="1.5"></path><path d="M815.51 494.88L831.45 365.13" stroke="hsl(228.5, 77.2%, 51.5%)" stroke-width="1.5"></path><path d="M815.51 494.88L648.39 393.48" stroke="hsl(228.5, 77.2%, 51.5%)" stroke-width="1.5"></path><path d="M948.39 682.19L948.39 682.19" stroke="hsl(228.5, 77.2%, 51.5%)" stroke-width="1.5"></path><path d="M948.39 682.19L1006.91 538.46" stroke="hsl(228.5, 77.2%, 51.5%)" stroke-width="1.5"></path><path d="M1161.35 228.26L1161.35 228.26" stroke="hsl(228.5, 77.2%, 51.5%)" stroke-width="1.5"></path><path d="M1161.35 228.26L1153.3 108.49" stroke="hsl(228.5, 77.2%, 51.5%)" stroke-width="1.5"></path><path d="M1161.35 228.26L1144.43 352.17" stroke="hsl(228.5, 77.2%, 51.5%)" stroke-width="1.5"></path><path d="M1144.43 352.17L1144.43 352.17" stroke="hsl(228.5, 77.2%, 51.5%)" stroke-width="1.5"></path><path d="M1144.43 352.17L1284.41 402.38" stroke="hsl(228.5, 77.2%, 51.5%)" stroke-width="1.5"></path><path d="M1144.43 352.17L1109.01 501.46" stroke="hsl(228.5, 77.2%, 51.5%)" stroke-width="1.5"></path><path d="M1144.43 352.17L1258.59 507.89" stroke="hsl(228.5, 77.2%, 51.5%)" stroke-width="1.5"></path><path d="M1144.43 352.17L1300.75 236.3" stroke="hsl(228.5, 77.2%, 51.5%)" stroke-width="1.5"></path><path d="M1144.43 352.17L1006.91 538.46" stroke="hsl(228.5, 77.2%, 51.5%)" stroke-width="1.5"></path><path d="M1106.58 698.32L1106.58 698.32" stroke="hsl(228.5, 77.2%, 51.5%)" stroke-width="1.5"></path><path d="M1106.58 698.32L948.39 682.19" stroke="hsl(228.5, 77.2%, 51.5%)" stroke-width="1.5"></path><path d="M1106.58 698.32L1274.17 656.88" stroke="hsl(228.5, 77.2%, 51.5%)" stroke-width="1.5"></path><path d="M1300.55 -47.25L1300.55 -47.25" stroke="hsl(228.5, 77.2%, 51.5%)" stroke-width="1.5"></path><path d="M1300.55 -47.25L1241.2 54.13" stroke="hsl(228.5, 77.2%, 51.5%)" stroke-width="1.5"></path><path d="M1300.55 -47.25L1423.4 -60.99" stroke="hsl(228.5, 77.2%, 51.5%)" stroke-width="1.5"></path><path d="M1549.84 538.99L1549.84 538.99" stroke="hsl(228.5, 77.2%, 51.5%)" stroke-width="1.5"></path><path d="M1549.84 538.99L1461.67 530.46" stroke="hsl(228.5, 77.2%, 51.5%)" stroke-width="1.5"></path><path d="M1549.84 538.99L1554.78 375.79" stroke="hsl(228.5, 77.2%, 51.5%)" stroke-width="1.5"></path><path d="M1549.84 538.99L1609.52 707.54" stroke="hsl(228.5, 77.2%, 51.5%)" stroke-width="1.5"></path><path d="M1549.84 538.99L1421.92 404.29" stroke="hsl(228.5, 77.2%, 51.5%)" stroke-width="1.5"></path><path d="M-87.45 492.49L-87.45 492.49" stroke="hsl(228.5, 77.2%, 51.5%)" stroke-width="1.5"></path><path d="M-87.45 492.49L-56.79 645.97" stroke="hsl(228.5, 77.2%, 51.5%)" stroke-width="1.5"></path><path d="M-87.45 492.49L91.46 665.78" stroke="hsl(228.5, 77.2%, 51.5%)" stroke-width="1.5"></path><path d="M-56.79 645.97L-56.79 645.97" stroke="hsl(228.5, 77.2%, 51.5%)" stroke-width="1.5"></path><path d="M-56.79 645.97L91.46 665.78" stroke="hsl(228.5, 77.2%, 51.5%)" stroke-width="1.5"></path><path d="M-56.79 645.97L105.09 499.55" stroke="hsl(228.5, 77.2%, 51.5%)" stroke-width="1.5"></path><path d="M-56.79 645.97L226.07 655.25" stroke="hsl(228.5, 77.2%, 51.5%)" stroke-width="1.5"></path><path d="M-56.79 645.97L227.99 560" stroke="hsl(228.5, 77.2%, 51.5%)" stroke-width="1.5"></path><path d="M91.46 665.78L91.46 665.78" stroke="hsl(228.5, 77.2%, 51.5%)" stroke-width="1.5"></path><path d="M91.46 665.78L226.07 655.25" stroke="hsl(228.5, 77.2%, 51.5%)" stroke-width="1.5"></path><path d="M91.46 665.78L227.99 560" stroke="hsl(228.5, 77.2%, 51.5%)" stroke-width="1.5"></path><path d="M227.99 560L227.99 560" stroke="hsl(228.5, 77.2%, 51.5%)" stroke-width="1.5"></path><path d="M227.99 560L226.07 655.25" stroke="hsl(228.5, 77.2%, 51.5%)" stroke-width="1.5"></path><path d="M227.99 560L375.65 557.05" stroke="hsl(228.5, 77.2%, 51.5%)" stroke-width="1.5"></path><path d="M227.99 560L361.36 660.18" stroke="hsl(228.5, 77.2%, 51.5%)" stroke-width="1.5"></path><path d="M226.07 655.25L226.07 655.25" stroke="hsl(228.5, 77.2%, 51.5%)" stroke-width="1.5"></path><path d="M226.07 655.25L361.36 660.18" stroke="hsl(228.5, 77.2%, 51.5%)" stroke-width="1.5"></path><path d="M226.07 655.25L375.65 557.05" stroke="hsl(228.5, 77.2%, 51.5%)" stroke-width="1.5"></path><path d="M375.65 557.05L375.65 557.05" stroke="hsl(228.5, 77.2%, 51.5%)" stroke-width="1.5"></path><path d="M375.65 557.05L361.36 660.18" stroke="hsl(228.5, 77.2%, 51.5%)" stroke-width="1.5"></path><path d="M361.36 660.18L361.36 660.18" stroke="hsl(228.5, 77.2%, 51.5%)" stroke-width="1.5"></path><path d="M361.36 660.18L535.32 681.47" stroke="hsl(228.5, 77.2%, 51.5%)" stroke-width="1.5"></path><path d="M535.32 681.47L535.32 681.47" stroke="hsl(228.5, 77.2%, 51.5%)" stroke-width="1.5"></path><path d="M535.32 681.47L644.85 700.46" stroke="hsl(228.5, 77.2%, 51.5%)" stroke-width="1.5"></path><path d="M535.32 681.47L375.65 557.05" stroke="hsl(228.5, 77.2%, 51.5%)" stroke-width="1.5"></path><path d="M535.32 681.47L655.68 503.79" stroke="hsl(228.5, 77.2%, 51.5%)" stroke-width="1.5"></path><path d="M535.32 681.47L790.28 708.76" stroke="hsl(228.5, 77.2%, 51.5%)" stroke-width="1.5"></path><path d="M535.32 681.47L648.39 393.48" stroke="hsl(228.5, 77.2%, 51.5%)" stroke-width="1.5"></path><path d="M648.39 393.48L648.39 393.48" stroke="hsl(228.5, 77.2%, 51.5%)" stroke-width="1.5"></path><path d="M648.39 393.48L831.45 365.13" stroke="hsl(228.5, 77.2%, 51.5%)" stroke-width="1.5"></path><path d="M644.85 700.46L644.85 700.46" stroke="hsl(228.5, 77.2%, 51.5%)" stroke-width="1.5"></path><path d="M644.85 700.46L790.28 708.76" stroke="hsl(228.5, 77.2%, 51.5%)" stroke-width="1.5"></path><path d="M644.85 700.46L815.51 494.88" stroke="hsl(228.5, 77.2%, 51.5%)" stroke-width="1.5"></path><path d="M644.85 700.46L361.36 660.18" stroke="hsl(228.5, 77.2%, 51.5%)" stroke-width="1.5"></path><path d="M644.85 700.46L948.39 682.19" stroke="hsl(228.5, 77.2%, 51.5%)" stroke-width="1.5"></path><path d="M831.45 365.13L831.45 365.13" stroke="hsl(228.5, 77.2%, 51.5%)" stroke-width="1.5"></path><path d="M831.45 365.13L655.68 503.79" stroke="hsl(228.5, 77.2%, 51.5%)" stroke-width="1.5"></path><path d="M831.45 365.13L1006.91 538.46" stroke="hsl(228.5, 77.2%, 51.5%)" stroke-width="1.5"></path><path d="M831.45 365.13L1109.01 501.46" stroke="hsl(228.5, 77.2%, 51.5%)" stroke-width="1.5"></path><path d="M831.45 365.13L1144.43 352.17" stroke="hsl(228.5, 77.2%, 51.5%)" stroke-width="1.5"></path><path d="M790.28 708.76L790.28 708.76" stroke="hsl(228.5, 77.2%, 51.5%)" stroke-width="1.5"></path><path d="M790.28 708.76L948.39 682.19" stroke="hsl(228.5, 77.2%, 51.5%)" stroke-width="1.5"></path><path d="M1006.91 538.46L1006.91 538.46" stroke="hsl(228.5, 77.2%, 51.5%)" stroke-width="1.5"></path><path d="M1006.91 538.46L1109.01 501.46" stroke="hsl(228.5, 77.2%, 51.5%)" stroke-width="1.5"></path><path d="M1153.3 108.49L1153.3 108.49" stroke="hsl(228.5, 77.2%, 51.5%)" stroke-width="1.5"></path><path d="M1153.3 108.49L1241.2 54.13" stroke="hsl(228.5, 77.2%, 51.5%)" stroke-width="1.5"></path><path d="M1109.01 501.46L1109.01 501.46" stroke="hsl(228.5, 77.2%, 51.5%)" stroke-width="1.5"></path><path d="M1109.01 501.46L1258.59 507.89" stroke="hsl(228.5, 77.2%, 51.5%)" stroke-width="1.5"></path><path d="M1241.2 54.13L1241.2 54.13" stroke="hsl(228.5, 77.2%, 51.5%)" stroke-width="1.5"></path><path d="M1300.75 236.3L1300.75 236.3" stroke="hsl(228.5, 77.2%, 51.5%)" stroke-width="1.5"></path><path d="M1300.75 236.3L1161.35 228.26" stroke="hsl(228.5, 77.2%, 51.5%)" stroke-width="1.5"></path><path d="M1300.75 236.3L1284.41 402.38" stroke="hsl(228.5, 77.2%, 51.5%)" stroke-width="1.5"></path><path d="M1300.75 236.3L1241.2 54.13" stroke="hsl(228.5, 77.2%, 51.5%)" stroke-width="1.5"></path><path d="M1300.75 236.3L1153.3 108.49" stroke="hsl(228.5, 77.2%, 51.5%)" stroke-width="1.5"></path><path d="M1284.41 402.38L1284.41 402.38" stroke="hsl(228.5, 77.2%, 51.5%)" stroke-width="1.5"></path><path d="M1284.41 402.38L1258.59 507.89" stroke="hsl(228.5, 77.2%, 51.5%)" stroke-width="1.5"></path><path d="M1284.41 402.38L1421.92 404.29" stroke="hsl(228.5, 77.2%, 51.5%)" stroke-width="1.5"></path><path d="M1284.41 402.38L1109.01 501.46" stroke="hsl(228.5, 77.2%, 51.5%)" stroke-width="1.5"></path><path d="M1258.59 507.89L1258.59 507.89" stroke="hsl(228.5, 77.2%, 51.5%)" stroke-width="1.5"></path><path d="M1258.59 507.89L1274.17 656.88" stroke="hsl(228.5, 77.2%, 51.5%)" stroke-width="1.5"></path><path d="M1258.59 507.89L1421.92 404.29" stroke="hsl(228.5, 77.2%, 51.5%)" stroke-width="1.5"></path><path d="M1274.17 656.88L1274.17 656.88" stroke="hsl(228.5, 77.2%, 51.5%)" stroke-width="1.5"></path><path d="M1274.17 656.88L1427.77 708.72" stroke="hsl(228.5, 77.2%, 51.5%)" stroke-width="1.5"></path><path d="M1423.4 -60.99L1423.4 -60.99" stroke="hsl(228.5, 77.2%, 51.5%)" stroke-width="1.5"></path><path d="M1423.4 -60.99L1444.71 73.69" stroke="hsl(228.5, 77.2%, 51.5%)" stroke-width="1.5"></path><path d="M1423.4 -60.99L1584.08 -48.04" stroke="hsl(228.5, 77.2%, 51.5%)" stroke-width="1.5"></path><path d="M1423.4 -60.99L1241.2 54.13" stroke="hsl(228.5, 77.2%, 51.5%)" stroke-width="1.5"></path><path d="M1444.71 73.69L1444.71 73.69" stroke="hsl(228.5, 77.2%, 51.5%)" stroke-width="1.5"></path><path d="M1444.71 73.69L1592.86 81.1" stroke="hsl(228.5, 77.2%, 51.5%)" stroke-width="1.5"></path><path d="M1444.71 73.69L1546.98 224.38" stroke="hsl(228.5, 77.2%, 51.5%)" stroke-width="1.5"></path><path d="M1444.71 73.69L1584.08 -48.04" stroke="hsl(228.5, 77.2%, 51.5%)" stroke-width="1.5"></path><path d="M1421.92 404.29L1421.92 404.29" stroke="hsl(228.5, 77.2%, 51.5%)" stroke-width="1.5"></path><path d="M1421.92 404.29L1461.67 530.46" stroke="hsl(228.5, 77.2%, 51.5%)" stroke-width="1.5"></path><path d="M1421.92 404.29L1554.78 375.79" stroke="hsl(228.5, 77.2%, 51.5%)" stroke-width="1.5"></path><path d="M1461.67 530.46L1461.67 530.46" stroke="hsl(228.5, 77.2%, 51.5%)" stroke-width="1.5"></path><path d="M1461.67 530.46L1554.78 375.79" stroke="hsl(228.5, 77.2%, 51.5%)" stroke-width="1.5"></path><path d="M1427.77 708.72L1427.77 708.72" stroke="hsl(228.5, 77.2%, 51.5%)" stroke-width="1.5"></path><path d="M1427.77 708.72L1461.67 530.46" stroke="hsl(228.5, 77.2%, 51.5%)" stroke-width="1.5"></path><path d="M1427.77 708.72L1609.52 707.54" stroke="hsl(228.5, 77.2%, 51.5%)" stroke-width="1.5"></path><path d="M1427.77 708.72L1549.84 538.99" stroke="hsl(228.5, 77.2%, 51.5%)" stroke-width="1.5"></path><path d="M1584.08 -48.04L1584.08 -48.04" stroke="hsl(228.5, 77.2%, 51.5%)" stroke-width="1.5"></path><path d="M1584.08 -48.04L1592.86 81.1" stroke="hsl(228.5, 77.2%, 51.5%)" stroke-width="1.5"></path><path d="M1592.86 81.1L1592.86 81.1" stroke="hsl(228.5, 77.2%, 51.5%)" stroke-width="1.5"></path><path d="M1592.86 81.1L1546.98 224.38" stroke="hsl(228.5, 77.2%, 51.5%)" stroke-width="1.5"></path><path d="M1592.86 81.1L1423.4 -60.99" stroke="hsl(228.5, 77.2%, 51.5%)" stroke-width="1.5"></path><path d="M1546.98 224.38L1546.98 224.38" stroke="hsl(228.5, 77.2%, 51.5%)" stroke-width="1.5"></path><path d="M1546.98 224.38L1554.78 375.79" stroke="hsl(228.5, 77.2%, 51.5%)" stroke-width="1.5"></path><path d="M1554.78 375.79L1554.78 375.79" stroke="hsl(228.5, 77.2%, 51.5%)" stroke-width="1.5"></path><path d="M1609.52 707.54L1609.52 707.54" stroke="hsl(228.5, 77.2%, 51.5%)" stroke-width="1.5"></path><path d="M1609.52 707.54L1461.67 530.46" stroke="hsl(228.5, 77.2%, 51.5%)" stroke-width="1.5"></path><path d="M1609.52 707.54L1554.78 375.79" stroke="hsl(228.5, 77.2%, 51.5%)" stroke-width="1.5"></path><circle r="25" cx="105.09" cy="499.55" fill="url(#SvgjsRadialGradient1284)"></circle><circle r="25" cx="655.68" cy="503.79" fill="url(#SvgjsRadialGradient1284)"></circle><circle r="25" cx="815.51" cy="494.88" fill="url(#SvgjsRadialGradient1284)"></circle><circle r="25" cx="948.39" cy="682.19" fill="url(#SvgjsRadialGradient1284)"></circle><circle r="25" cx="1161.35" cy="228.26" fill="url(#SvgjsRadialGradient1284)"></circle><circle r="25" cx="1144.43" cy="352.17" fill="url(#SvgjsRadialGradient1284)"></circle><circle r="25" cx="1106.58" cy="698.32" fill="url(#SvgjsRadialGradient1284)"></circle><circle r="25" cx="1300.55" cy="-47.25" fill="url(#SvgjsRadialGradient1284)"></circle><circle r="25" cx="1549.84" cy="538.99" fill="url(#SvgjsRadialGradient1284)"></circle><circle r="5" cx="-87.45" cy="492.49" fill="#8b9ad9"></circle><circle r="5" cx="-56.79" cy="645.97" fill="#8b9ad9"></circle><circle r="5" cx="91.46" cy="665.78" fill="#8b9ad9"></circle><circle r="5" cx="227.99" cy="560" fill="#8b9ad9"></circle><circle r="5" cx="226.07" cy="655.25" fill="#8b9ad9"></circle><circle r="5" cx="375.65" cy="557.05" fill="#8b9ad9"></circle><circle r="5" cx="361.36" cy="660.18" fill="#8b9ad9"></circle><circle r="5" cx="535.32" cy="681.47" fill="#8b9ad9"></circle><circle r="5" cx="648.39" cy="393.48" fill="#8b9ad9"></circle><circle r="5" cx="644.85" cy="700.46" fill="#8b9ad9"></circle><circle r="5" cx="831.45" cy="365.13" fill="#8b9ad9"></circle><circle r="5" cx="790.28" cy="708.76" fill="#8b9ad9"></circle><circle r="5" cx="1006.91" cy="538.46" fill="#8b9ad9"></circle><circle r="5" cx="1153.3" cy="108.49" fill="#8b9ad9"></circle><circle r="5" cx="1109.01" cy="501.46" fill="#8b9ad9"></circle><circle r="5" cx="1241.2" cy="54.13" fill="#8b9ad9"></circle><circle r="5" cx="1300.75" cy="236.3" fill="#8b9ad9"></circle><circle r="5" cx="1284.41" cy="402.38" fill="#8b9ad9"></circle><circle r="5" cx="1258.59" cy="507.89" fill="#8b9ad9"></circle><circle r="5" cx="1274.17" cy="656.88" fill="#8b9ad9"></circle><circle r="5" cx="1423.4" cy="-60.99" fill="#8b9ad9"></circle><circle r="5" cx="1444.71" cy="73.69" fill="#8b9ad9"></circle><circle r="5" cx="1421.92" cy="404.29" fill="#8b9ad9"></circle><circle r="5" cx="1461.67" cy="530.46" fill="#8b9ad9"></circle><circle r="5" cx="1427.77" cy="708.72" fill="#8b9ad9"></circle><circle r="5" cx="1584.08" cy="-48.04" fill="#8b9ad9"></circle><circle r="5" cx="1592.86" cy="81.1" fill="#8b9ad9"></circle><circle r="5" cx="1546.98" cy="224.38" fill="#8b9ad9"></circle><circle r="5" cx="1554.78" cy="375.79" fill="#8b9ad9"></circle><circle r="5" cx="1609.52" cy="707.54" fill="#8b9ad9"></circle></g><defs><mask id="SvgjsMask1283"><rect width="1440" height="560" fill="#ffffff"></rect></mask><radialGradient id="SvgjsRadialGradient1284"><stop stop-color="#ffffff" offset="0.1"></stop><stop stop-color="#1735b3" offset="0.2"></stop><stop stop-color="rgba(23, 53, 179, 0)" offset="1"></stop></radialGradient></defs></svg>